PathFileType	4	(X/Y/Z)	6_coords_data.trc
DataRate	CameraRate	NumFrames	NumMarkers	Units	OrigDataRate	OrigDataStartFrame	OrigNumFrames
30.0	30.0	6	21	m	30.0	31	72
Frame#	Time	THUMB_TIP	THUMB_IP	THUMB_MCP	THUMB_CMC	INDEX_TIP	INDEX_DIP	INDEX_PIP	INDEX_MCP	MIDDLE_TIP	MIDDLE_DIP	MIDDLE_PIP	MIDDLE_MCP	RING_TIP	RING_DIP	RING_PIP	RING_MCP	PINKY_TIP	PINKY_DIP	PINKY_PIP	PINKY_MCP	WRIST
X1	Y1	Z1	X2	Y2	Z2	X3	Y3	Z3	X4	Y4	Z4	X5	Y5	Z5	X6	Y6	Z6	X7	Y7	Z7	X8	Y8	Z8	X9	Y9	Z9	X10	Y10	Z10	X11	Y11	Z11	X12	Y12	Z12	X13	Y13	Z13	X14	Y14	Z14	X15	Y15	Z15	X16	Y16	Z16	X17	Y17	Z17	X18	Y18	Z18	X19	Y19	Z19	X20	Y20	Z20	X21	Y21	Z21
29	0.9999999999999956	0.49527366695561914	-0.031035657258509874	-0.1698139098761592	0.49058806522915743	-0.032768283536516396	-0.14738528658711753	0.47145068481620356	-0.02991712172969485	-0.12300390952836204	0.47162889797444296	-0.02897025182094548	-0.07840613293079907	0.5681995642520625	0.028915527254682716	-0.17106348082828732	0.5535984573418359	0.025662533692491385	-0.1608543814615226	0.5338935585378665	0.020119458360766562	-0.1462598238460226	0.5033678853771892	0.007801754004656103	-0.1192395808515013	0.5949960030903605	0.036460738527508973	-0.1409920286122844	0.578666485784591	0.03350493288608447	-0.13373874814268305	0.5527643846064401	0.028238092971610618	-0.12146067411325426	0.5156232085776067	0.015527079078332617	-0.10012734127470985	0.6043413299012464	0.033183926587701196	-0.10773718374110644	0.5877839577286466	0.028405819721962988	-0.10244349679176715	0.5649491124829844	0.02138342353239675	-0.09541243902188459	0.52797894145765	0.01050602788016286	-0.0831809406597746	0.6041820229309476	0.006498661923305837	-0.07539053468697277	0.5874700255816812	0.005952048735833104	-0.07172851903689759	0.5668476238833142	0.005068662618603503	-0.06788818101022853	0.5312763907417368	0.00039604609170618144	-0.06418177053915164	0.4622830810018609	-0.023011742144276925	-0.051989820119430985
30	1.0333333333333288	0.4953488414693732	-0.031096510819501932	-0.16978455053562447	0.4906397059128179	-0.03281818633978295	-0.14736001317779135	0.4714808829770043	-0.02994291204605648	-0.12299831575232487	0.4716364754199137	-0.028982210687962806	-0.0784007503042842	0.5681705829279934	0.028964723180801677	-0.17107355068197372	0.5535747305918085	0.025704899447387852	-0.16085911756959015	0.5338751847288764	0.020150424185978344	-0.14626166812235353	0.5033586757664467	0.007800235373443876	-0.11924590215059755	0.5950304953723992	0.03634695271213584	-0.14098007067185897	0.5786920468914455	0.033431298831866796	-0.13373065250998595	0.5527849236464059	0.028194671123294546	-0.12145025164486192	0.5156208834379733	0.01552224424354176	-0.10013378774103085	0.6043506011339932	0.03314128499312874	-0.10774103236390406	0.5877895861956631	0.028375508124568793	-0.10244762561101747	0.5649507505198959	0.021366880834777446	-0.09541579032511258	0.5279745236133402	0.010518545368806476	-0.08317679137206632	0.6041728550928703	0.006449383129341735	-0.0754440665818514	0.5874639235157183	0.005921996582320621	-0.07176528023577605	0.5668438343624945	0.005059812218267901	-0.06790774469666652	0.5312716051750712	0.00040968537808716565	-0.06418265650876223	0.4622830810018609	-0.023011742144276925	-0.051989820119430985
31	1.0666666666666622	0.49544156504272585	-0.03113339725629305	-0.16975647792919082	0.490708387947861	-0.03284437075638991	-0.14733618345586572	0.4715285077655228	-0.029960172796180018	-0.12299211645140906	0.47165563474007166	-0.028977904479629557	-0.07839493057957805	0.5681509539792186	0.029046388064315143	-0.1710661287800876	0.5535588435434269	0.02577409310434886	-0.160850337145337	0.5338648636612677	0.020203238668980328	-0.14625161904198827	0.5033634659139443	0.007811482195887454	-0.11923782254887849	0.5950626521020783	0.03625963546880573	-0.14094939191127812	0.578714868193903	0.033381414255566955	-0.1337060636749442	0.5527988245439459	0.02818660267175499	-0.12142672476186689	0.515617487057443	0.015531496233939457	-0.10013014417337013	0.6043454344090875	0.03314074524173494	-0.10773494862621269	0.5877819338933148	0.028381661488802057	-0.10244329741921018	0.5649426917507872	0.021372807102189584	-0.09541300883749099	0.5279582008397645	0.010554974765730862	-0.08317198071103202	0.6041551752136077	0.006439984823236933	-0.07549638953046511	0.5874486205835877	0.005927649783555422	-0.07180470357398488	0.5668304111151512	0.005079448826381117	-0.06793404310683918	0.531257901319556	0.0004452357096046411	-0.06419184233315353	0.4622830810018608	-0.023011742144276925	-0.051989820119430985
32	1.0999999999999952	0.4955277349868292	-0.031139581793735882	-0.1697372569276548	0.49076851109358166	-0.032832185136806524	-0.14732108236871255	0.4715678643900951	-0.02996058590563	-0.12299190063106673	0.4716651621235711	-0.028962659133094038	-0.07839498733756942	0.5681105757217866	0.029156039881936047	-0.1710606376857623	0.5535208521025188	0.025871840290990322	-0.1608452572346869	0.5338359561303211	0.02027744968648415	-0.14624328828087904	0.5033501933337083	0.00783467363434931	-0.1192352953005577	0.5950777170457313	0.03619347793407113	-0.1409278799834818	0.5787218680117454	0.03335538313708741	-0.13368692560572226	0.5528010967550886	0.028187643547605057	-0.12140614244684443	0.5155993221527511	0.015552653174406239	-0.10013332162528782	0.6043238473628327	0.03317832691625111	-0.10773878666320694	0.5877596956109652	0.028421531832740987	-0.1024471161070783	0.5649232061478964	0.021402094706785446	-0.0954184440818727	0.5279354805836063	0.010589892488631958	-0.08318221611838136	0.6041304817668359	0.00647284847459717	-0.07556203391839447	0.5874258292611806	0.0059733720823074155	-0.07185999285989111	0.5668100514096347	0.00511453255268457	-0.06797874084049554	0.5312386782005989	0.0004907255564636781	-0.0642129384180089	0.4622830810018608	-0.023011742144276925	-0.051989820119430985
33	1.1333333333333284	0.4955945474737432	-0.03116801065822361	-0.1697184980163935	0.49080790147425024	-0.03285451933606309	-0.1473077035513347	0.47159697127544165	-0.02997229900472076	-0.12298789749005822	0.4716832348086213	-0.02894948456174673	-0.07839152533695493	0.5680607123000484	0.02925613671096383	-0.17107187023499848	0.5534777734625086	0.02595952727738149	-0.16085080076536917	0.5338030970295009	0.02034950703545446	-0.14624105699137968	0.503338367942157	0.007861930996703514	-0.11923000702453904	0.5950903016566426	0.03612015611508279	-0.14091449893964553	0.5787274842147742	0.033322736127356256	-0.13367345987219462	0.5527998830485741	0.02819734846493749	-0.12138934618514387	0.5155856348553117	0.015573696235735124	-0.1001316168424689	0.6043078962413361	0.03319894522344091	-0.10774554295588595	0.5877424975791442	0.028445555849477056	-0.10245471536257486	0.5649071422915665	0.021423905850865732	-0.09542456890698092	0.5279172789260248	0.01062305737220548	-0.0831847766563098	0.6041078595233828	0.006485177395325281	-0.07562986502844493	0.5874056554459307	0.005998397235222774	-0.07191510742789098	0.5667928555665382	0.005141050582926021	-0.06801774205498654	0.5312223826563063	0.0005319718695705467	-0.06422547342571505	0.462283081001861	-0.023011742144276925	-0.051989820119430985
34	1.1666666666666616	0.49565378245822633	-0.031235787323169673	-0.16969604719916012	0.4908470894390935	-0.03292111413299814	-0.14728945496018075	0.471624979769138	-0.030013234147935997	-0.1229815399153096	0.47169877296132645	-0.028948912146634198	-0.07838611668329698	0.5680136880362372	0.02934817924597377	-0.17109339717447486	0.5534408488831888	0.02603779595997202	-0.1608623795555309	0.5337806269486663	0.02041070897476127	-0.14623974646343035	0.5033415260657765	0.007880339546057491	-0.1192196229733077	0.5951031490696248	0.03607013117067581	-0.14089720296311345	0.5787351825852725	0.03330188928288125	-0.13365658765654032	0.5528027218576614	0.028205523151824896	-0.12137065737555895	0.5155778723529565	0.015592268635990836	-0.10012532116097159	0.6042926883896458	0.033241594953036246	-0.10773812748588688	0.5877289890819677	0.028479724238844484	-0.10244960665807981	0.5648955600457891	0.02144845382028382	-0.09542281978562697	0.5279070618205378	0.010652116715377469	-0.08317492453142863	0.6040919417880473	0.0065131216393528035	-0.07566648083812569	0.587392122662922	0.006035393219233964	-0.0719398447216377	0.5667817410692719	0.005163889033935609	-0.06803284203170579	0.5312120862306192	0.0005640315518389283	-0.06422175074396239	0.4622830810018609	-0.023011742144276925	-0.051989820119430985
